<svg xmlns="http://www.w3.org/2000/svg" width="200.001" height="106.374" viewBox="0 0 200.001 106.374"><path d="M700.87,206.576a19.739,19.739,0,0,0,3.543,5.171h5.855a1.217,1.217,0,0,0-.78-1.888c-.453-.162-2.8-1.234-3.066-4.994-.106-1.361-.563-4.274-.634-6.48-2.263,2.906-4.457,6.3-4.915,8.192" transform="translate(-549.662 -155.584)" fill="#232f61"></path><path d="M339.5,201.3c.009,3.489,3.437,8.36,3.437,8.36h9.292l.205-.283a1.66,1.66,0,0,0-.954-2.815c-.768-.157-2.069-1.935-.977-7.954.114-.6.414-1.907.662-2.882A36.467,36.467,0,0,0,339.5,201.3" transform="translate(-266.256 -153.498)" fill="#232f61"></path><path d="M499.429,168.143a42.675,42.675,0,0,0,8.032,9.555h10.651c.438-.874.973-2.729-1.769-3.586-.634-.181-2.956-2.16-3.437-9.029a35.176,35.176,0,0,1,1.344-10.114,187.352,187.352,0,0,0-14.822,13.173" transform="translate(-391.681 -121.535)" fill="#232f61"></path><path d="M629.311,113.169a.859.859,0,0,0-1.077-.546.763.763,0,1,0,.276,1.452c.516-.106.887-.516.8-.908m-7.98-1.361a2.383,2.383,0,0,1,2.078-1.6,2.02,2.02,0,0,1,1.694,1.042c1.174-.028,4.673-.33,5.368.42a2.006,2.006,0,0,0,1.107.736c1.253.33,3.547.22,4.462.378.324.063.4.114.457.24a4.621,4.621,0,0,1-.315,3.35c-.606,1.726-5.04,2.772-8.9,3.581-2.332.477-3.342,1.983-4.071,2.552-3.929,3.092-14.554,15.053-9.391,17.935,1.469.4,1.312,1.415.882,2.151h-5.888s-3.409-3.3-4.052-6.524c-1.312.708-3.7.818-3.881.971a8.842,8.842,0,0,0-2.207,3.016c-.06.181-.076.263.125.32,1.683.453,1.6,1.6,1.159,2.218h-8.362s-.4.02-.209-.382a6.564,6.564,0,0,0,.945-2.984,3.833,3.833,0,0,0-.248-1.21c-1.978-4.986-1.927-10.015,0-12.891,3.065-4.621,8.872-7.921,27.69-12.891l-.5,1.978c.492.02,1.2-.22,1.316-.516l.753-1.892Z" transform="translate(-463.194 -86.431)" fill="#232f61"></path><path d="M341.558,3.465a1.186,1.186,0,0,0-2.332-.286,1.186,1.186,0,0,0,2.332.286M254.242,24.636c0-.22-.114-.311-.343-.067-.367.386-.78,1.368-1.43,1.2-.457-.106-1.2-.66-1.292-2.116-.129-2.17.453-10.44,13.34-14.317,10.282-6.095,31.2-3.146,39.99-4.062,9.359-.967,13.506-1.543,17.52-2.434l-.835,3.048c.3-.052,1.415-.354,1.631-.841l.958-2.332A3.461,3.461,0,0,1,326.771.4a3.958,3.958,0,0,1,3.122,1.38L334.87.731A43.837,43.837,0,0,1,340.119,0c2.407-.067,2.649.343,3.212.764.882.688,1.258.755,4.418.531,1.426-.114,4.185-.35,4.315-.378a1.069,1.069,0,0,1,1.234.444,9.475,9.475,0,0,1,.485,1.051,4.54,4.54,0,0,1-.354,3.007.945.945,0,0,1-.268.617A9.859,9.859,0,0,1,349.745,7.4c-1.245.306-3.948.76-6.293,1.09-.343.052-.257.578.162.755,1.316.531,5.23.091,5.926-.024.863-.157,2-.393,2.6-.516.17-.028.382.229.419.492.039.334.067.794.076.984a1.35,1.35,0,0,1-.71,1.118,40.3,40.3,0,0,1-8.082,3.432c-16.63,5.706-37.177,23.193-49.145,36.308a.814.814,0,0,0-.209,1.033c.058.186.134.343.233.587,2.675.693,2.088,2.453,1.726,3.1l-.22.4H286.071s-2.86-3.385-1.111-9.22c.662-2.233,2.464-6.587,2.68-7.018.166-.382-.734-.64-2.412-.64-12.047,0-22.131,8.753-25.94,12.552-.572.559-.347.841.032.94,2.431.64,2.451,2.38,1.8,3.385H250.255c-.492-.488-2.8-3.083-2.64-8.351.071-2.567,7.484-13.05,7.629-15.756.263-4.46-.954-3.9-1.01-7.417" transform="translate(-194.188 0.003)" fill="#232f61"></path><path d="M20.54,346.847c-15.424,0-22.655-3.7-20-16.285L5.621,306.63h16.2L16.73,330.688c-.954,4.494,1.474,5.933,6.045,5.933s7.924-1.486,8.91-6.114l5.048-23.877H52.591l-5.107,24.11c-2.621,12.4-11.48,16.11-26.947,16.11" transform="translate(-0.004 -240.476)" fill="#ea4740"></path><path d="M504.3,345.482H476.49l2.088-9.89h21.474c2.518,0,3.914-.6,4.082-2.257.157-1.44-.753-2.339-3.113-2.339h-9.487c-8.362,0-12.9-5.8-10.936-13.255,2.294-8.675,8.374-11.152,15.409-11.152h27.743l-2.1,9.89H499.918c-2.708,0-3.527.854-3.672,2.123-.138,1.223.8,2.26,2.755,2.26h10.08c8.753,0,12.858,4.136,10.856,12.863-1.7,7.443-6.574,11.754-15.633,11.754" transform="translate(-373.691 -240.444)" fill="#ea4740"></path><path d="M729.293,319.594c.414-1.989-.3-3.092-2.27-3.092H702.117l2.093-9.875h29.922c8.3,0,12.669,5.439,10.785,14.33l-5.2,24.556H706.042c-7.866,0-11.676-5.808-10.442-12.815,1.111-6.418,5.769-11.8,15.065-11.8h18.352l.276-1.3Zm-2.2,10.412H715.915c-2.826,0-4.267.98-4.492,2.667-.224,1.644.852,2.954,3.266,2.954H725.9l1.191-5.62Z" transform="translate(-545.35 -240.473)" fill="#ea4740"></path><path d="M267.713,316.1H257.64l-1.7,8.034h10.116a4.393,4.393,0,0,0,4.654-4.03c.362-2.429-.772-4.006-2.995-4.006m9.611,15.08,7.862,14.306H266.4l-5.107-11.86h-7.357L251.42,345.48H235.55l8.233-38.89h31.274c9.935,0,12.919,6.7,11.689,13.586-.958,5.368-3.743,9.163-9.426,11" transform="translate(-184.732 -240.444)" fill="#ea4740"></path></svg>